<svg width="256" height="256" viewBox="0 0 256 256" fill="none" xmlns="http://www.w3.org/2000/svg">
<rect width="256" height="256" rx="32" fill="#D73035"/>
<path d="M128.093 113.32C124.061 126.184 119.981 138.088 115.853 149.032C111.725 159.976 107.597 170.632 103.469 181H89.5008C84.4128 166.312 79.9008 150.808 75.9648 134.488C72.1248 118.168 68.5248 100.408 65.1648 81.208H79.8528C81.1968 88.696 82.5888 96.184 84.0288 103.672C85.4688 111.16 86.9568 118.456 88.4928 125.56C90.0288 132.568 91.5648 139.288 93.1008 145.72C94.6368 152.152 96.2208 158.104 97.8528 163.576C101.693 153.496 105.773 142.456 110.093 130.456C114.413 118.36 118.445 105.88 122.189 93.016H134.285C138.029 105.88 142.109 118.36 146.525 130.456C150.941 142.456 155.069 153.496 158.909 163.576C160.445 158.2 161.981 152.296 163.517 145.864C165.053 139.432 166.541 132.712 167.981 125.704C169.517 118.6 171.005 111.304 172.445 103.816C173.885 96.232 175.277 88.696 176.621 81.208H190.877C187.421 100.408 183.725 118.168 179.789 134.488C175.949 150.808 171.533 166.312 166.541 181H152.573C148.349 170.632 144.221 159.976 140.189 149.032C136.157 138.088 132.125 126.184 128.093 113.32Z" fill="white"/>
</svg>
